#!OML:ASF F:\VICON\USERDATA\INSTALL\rory3\rory3.ASF
:FULLY-SPECIFIED
:DEGREES
1020
root 0.0789425 15.6345 -2.99574 15.9887 30.188 1.72289
lowerback 28.5385 1.08113 10.2397
upperback 7.14309 5.97021 13.2528
thorax -7.74534 2.82647 6.62008
lowerneck 3.17704 -10.1943 -14.9177
upperneck -4.29928 -13.4733 38.391
head 2.4654 -7.24414 15.2407
rclavicle 4.13472e-014 1.24042e-013
rhumerus 88.0619 -2.61789 -73.8956
rradius 72.7046
rwrist -63.3016
rhand -34.8319 3.27286
rfingers 7.12502
rthumb -7.98251 -26.5564
lclavicle 4.13472e-014 1.24042e-013
lhumerus 92.3612 19.4443 27.6602
lradius 64.0766
lwrist 57.7859
lhand -17.4704 26.6751
lfingers 7.12502
lthumb 8.78146 56.4724
rfemur -37.2955 -1.50443 12.4234
rtibia 41.9715
rfoot -17.1031 -28.642
rtoes 7.69525
lfemur -42.4059 -15.1949 -16.3595
ltibia 25.8725
lfoot 5.17888 -4.55615
ltoes -2.63985
1021
root 0.113217 15.6369 -3.00372 15.9407 29.4763 1.78347
lowerback 28.5868 1.30809 10.4848
upperback 7.12166 6.32688 13.2477
thorax -7.77697 2.98412 6.36677
lowerneck 0.10547 -11.1524 -14.484
upperneck -1.04233 -15.5843 37.3948
head 4.41386 -7.70719 14.1931
rclavicle -4.77083e-014 -9.54166e-014
rhumerus 87.9005 -3.50126 -74.0742
rradius 72.4822
rwrist -63.2749
rhand -35.0084 3.28802
rfingers 7.12502
rthumb -8.15288 -26.5347
lclavicle -4.77083e-014 -9.54166e-014
lhumerus 93.4595 18.9125 28.1436
lradius 63.7558
lwrist 57.4299
lhand -16.9658 26.6718
lfingers 7.12502
lthumb 9.2683 56.4481
rfemur -37.2651 -1.12214 12.1111
rtibia 41.8451
rfoot -16.9609 -28.4439
rtoes 7.59289
lfemur -42.2082 -14.9784 -16.5793
ltibia 25.915
lfoot 5.07645 -4.21485
ltoes -2.63275
1022
root 0.150221 15.6438 -3.0105 15.9601 28.7794 1.86872
lowerback 28.4327 1.29162 10.6892
upperback 7.10906 6.33092 13.2804
thorax -7.7004 2.98266 6.30133
lowerneck 1.01424 -11.0561 -14.193
upperneck -1.8364 -15.2458 37.4107
head 3.89058 -7.69045 14.2391
rclavicle 6.36111e-015 6.04305e-014
rhumerus 87.8184 -3.56224 -74.4803
rradius 72.2822
rwrist -63.1666
rhand -35.1594 3.25367
rfingers 7.12502
rthumb -8.29858 -26.5633
lclavicle 6.36111e-015 6.04305e-014
lhumerus 93.7909 18.5446 28.2397
lradius 63.4819
lwrist 57.0593
lhand -16.7838 26.7917
lfingers 7.12502
lthumb 9.44398 56.5601
rfemur -37.2731 -0.759666 11.7599
rtibia 41.6926
rfoot -16.7634 -28.2103
rtoes 7.43468
lfemur -42.071 -14.7028 -16.8632
ltibia 25.9724
lfoot 4.89491 -3.98773
ltoes -2.58177
1023
root 0.188553 15.6487 -3.01496 16.0043 27.9817 2.0302
lowerback 28.2439 1.20181 10.7723
upperback 7.15569 6.19064 13.3177
thorax -7.55224 2.91858 6.35346
lowerneck 2.07528 -10.8758 -14.2232
upperneck -2.88615 -14.7473 37.5793
head 3.27567 -7.63687 14.4574
rclavicle 1.27222e-014 -2.8625e-014
rhumerus 87.82 -3.18243 -74.8957
rradius 72.0567
rwrist -62.9185
rhand -35.1572 3.29541
rfingers 7.12502
rthumb -8.29653 -26.5217
lclavicle 1.27222e-014 -2.8625e-014
lhumerus 93.9906 18.2784 28.2736
lradius 63.0001
lwrist 56.6839
lhand -16.5843 26.9269
lfingers 7.12502
lthumb 9.63646 56.6865
rfemur -37.2728 -0.30426 11.3147
rtibia 41.5252
rfoot -16.569 -27.998
rtoes 7.44411
lfemur -41.896 -14.2977 -17.2881
ltibia 26.014
lfoot 4.69296 -3.84747
ltoes -2.42304
1024
root 0.222852 15.6521 -3.01749 15.9761 27.2245 2.13713
lowerback 28.1508 1.13514 10.8113
upperback 7.2142 6.09131 13.4094
thorax -7.44974 2.87334 6.47027
lowerneck 3.08753 -10.7245 -14.1396
upperneck -4.12303 -14.2291 37.7677
head 2.60876 -7.58488 14.667
rclavicle 6.99722e-014 9.54166e-014
rhumerus 87.7729 -2.86598 -75.2054
rradius 71.9224
rwrist -62.626
rhand -35.2898 3.36893
rfingers 7.12502
rthumb -8.42445 -26.4431
lclavicle 6.99722e-014 9.54166e-014
lhumerus 94.1982 18.0858 28.2778
lradius 62.5587
lwrist 56.2559
lhand -16.1611 26.9154
lfingers 7.12502
lthumb 10.0448 56.6557
rfemur -37.2267 0.147167 10.9511
rtibia 41.3603
rfoot -16.3173 -27.8388
rtoes 7.28389
lfemur -41.6766 -14.0894 -17.5447
ltibia 26.0341
lfoot 4.49134 -3.50345
ltoes -2.29591
1025
root 0.255808 15.6556 -3.01907 15.9063 26.5238 2.1952
lowerback 28.1018 1.0522 10.8579
upperback 7.23867 5.99405 13.5433
thorax -7.40981 2.82688 6.62604
lowerneck 4.1258 -10.5273 -14.1561
upperneck -5.23555 -13.6848 37.947
head 1.97241 -7.51002 14.9106
rclavicle 0 -3.18055e-015
rhumerus 87.5785 -2.66073 -75.4753
rradius 71.9523
rwrist -62.5188
rhand -35.5012 3.45208
rfingers 7.12502
rthumb -8.62851 -26.3516
lclavicle 0 -3.18055e-015
lhumerus 94.1922 17.9327 28.1695
lradius 62.328
lwrist 55.856
lhand -15.6046 26.7264
lfingers 7.12502
lthumb 10.5816 56.44
rfemur -37.1685 0.54427 10.6565
rtibia 41.2249
rfoot -16.0566 -27.6785
rtoes 7.01065
lfemur -41.4393 -14.1066 -17.6342
ltibia 26.0439
lfoot 4.2448 -2.96325
ltoes -2.64798
1026
root 0.288097 15.6609 -3.02029 15.8342 25.8551 2.27176
lowerback 28.0654 0.959631 10.9226
upperback 7.25559 5.89239 13.6699
thorax -7.37974 2.77752 6.76584
lowerneck 2.08636 -10.7885 -14.2704
upperneck -2.1163 -14.8285 36.7285
head 3.40368 -7.60603 14.0865
rclavicle -2.8625e-014 -9.22361e-014
rhumerus 87.3782 -2.68808 -75.693
rradius 72.0208
rwrist -62.6631
rhand -35.6108 3.58225
rfingers 7.12502
rthumb -8.73421 -26.217
lclavicle -2.8625e-014 -9.22361e-014
lhumerus 94.3023 17.7616 28.135
lradius 62.0316
lwrist 55.4646
lhand -15.1843 26.5383
lfingers 7.12502
lthumb 10.987 56.2308
rfemur -37.1337 0.892753 10.3606
rtibia 41.1082
rfoot -15.7199 -27.5977
rtoes 6.03501
lfemur -41.1749 -13.983 -17.8216
ltibia 26.0426
lfoot 3.98417 -2.55911
ltoes -3.02873
